# xmcd CD database file
#
# Track frame offsets:
#	150
#	21335
#	44220
#	65267
#	95100
#	115179
#	132775
#	168634
#	193342
#	210850
#	233059
#	259817
#	279545
#	305712
#
# Disc length: 4362 seconds
#
# Revision: 0
# Processed by: cddbd v1.4PL0 Copyright (c) Steve Scherf et al.
# Submitted via: CDex 1.40Release
#
DISCID=d411080e
DTITLE=Clarence Gatemouth Brown - The Blues Ain't Nothing
DYEAR=1999
DGENRE=Blues
TTITLE0=Blues Ain't Nothing
TTITLE1=Piney Brown Blues
TTITLE2=The People
TTITLE3=If I Get Lucky
TTITLE4=Let The Good Time Roll
TTITLE5=Caldonia
TTITLE6=Somebody Done Changed Te Lack Of My Door
TTITLE7=Ain't Just Like A Woman
TTITLE8=Sad Sad Hour
TTITLE9=Slow Down
TTITLE10=She Winkled Your Eye
TTITLE11=PleaseTell Me My Baby 
TTITLE12=You Got Money
TTITLE13=Dirty Wrk At The Crossroad
EXTD=YEAR: 1999 ID3G: 0
EXTT0=
EXTT1=
EXTT2=
EXTT3=
EXTT4=
EXTT5=
EXTT6=
EXTT7=
EXTT8=
EXTT9=
EXTT10=
EXTT11=
EXTT12=
EXTT13=
PLAYORDER=
